<svg width="1920" height="982" fill="none" xmlns="http://www.w3.org/2000/svg"><path d="M1427.09 257.492c-124.81-60.94-252.82 46.471-301.23 107.794-372.362-146.111-649.902 82.184-685.848 159.666-54.638-137.388-375.01-251.65-470.174-178.22-56.795-35.213 25.881 40.832 0 72.452-25.881 31.619-67.475 549.92-66.83 562.816 0 0 537.004-635.268 1398.292-314.041C1711.35 820.89 1940.43 982 1940.43 982L2123 831.807l-57.51-203.502L2123 387.564 1940.43 15.969c-89.15-55.766-212.6 47.733-227.21 107.858-165.07-137.402-259.53 31.859-286.13 133.665Z" fill="#FFD600"/></svg>