<svg viewBox="0 0 24 24" fill="none" xmlns="http://www.w3.org/2000/svg"><path d="M14.3889 18.0143C14.8177 19.6147 13.868 21.2597 12.2676 21.6885C10.6672 22.1174 9.022175 21.1676 8.59335 19.5672M10.8894 5.74035C11.1937 5.19305 11.2939 4.53155 11.119 3.87895C10.7616 2.5453 9.3908 1.7538375 8.05715 2.1111975C6.723475 2.4685475 5.932 3.8394 6.289375 5.17305C6.464225 5.82565 6.88175 6.348425 7.418875 6.6703M16.2338 9.4448C15.8769 8.112675 14.924 6.9987 13.5847 6.347975C12.2454 5.69725 10.6295 5.56305 9.0924 5.9749C7.55535 6.38675 6.223 7.31095 5.388525 8.544125C4.55405 9.7773 4.285775 11.2185 4.642725 12.5506C5.2333 14.7547 5.1186 16.5131 4.74565 17.8492C4.3206 19.3721 4.10805 20.1335 4.165475 20.2864C4.231175 20.4613 4.2787 20.5093 4.452925 20.5768C4.6052 20.6358 5.244975 20.4644 6.524525 20.1216L18.3896 16.9423C19.6691 16.5995 20.3089 16.4281 20.4113 16.3008C20.5284 16.1552 20.5456 16.0899 20.515 15.9055C20.4883 15.7444 19.9235 15.1913 18.794 14.085C17.8029 13.1143 16.8244 11.6489 16.2338 9.4448Z" stroke="black" stroke-width="2" stroke-linecap="round" stroke-linejoin="round"></path></svg>