<svg width="124" height="124" viewBox="0 0 124 124" fill="none" xmlns="http://www.w3.org/2000/svg">
<path d="M95.422 83.5948C89.6251 85.1355 79.8848 86.6268 65.8901 88.5248C51.8955 90.4229 42.0557 83.9892 39.7668 71.0356C37.4779 58.082 43.4987 49.701 58.6129 48.3699C73.7271 47.0388 82.5842 47.4332 88.3935 47.9631C94.2029 48.4931 104.105 47.4332 107.513 64.6389C110.263 78.4922 101.592 81.9803 95.4344 83.6072M109.964 61.8288C108.098 52.9301 103.844 45.9542 90.782 44.8079C78.3045 43.5789 65.7267 43.7526 53.2887 45.3256C42.4164 46.8539 31.258 55.1856 22.0278 64.528C13.5937 73.0816 12.9717 102.514 42.5408 103.968C58.8244 104.732 74.0257 91.5198 82.6215 90.8913C90.9934 90.2997 82.7832 96.8936 90.0853 95.8213C97.3874 94.749 109.168 84.6178 110.76 76.2121C111.27 73.476 110.959 66.956 109.902 61.8905" fill="white"/>
<path d="M95.422 83.5948C89.6251 85.1355 79.8848 86.6268 65.8901 88.5248C51.8955 90.4229 42.0557 83.9892 39.7668 71.0356C37.4779 58.082 43.4987 49.701 58.6129 48.3699C73.7271 47.0388 82.5842 47.4332 88.3935 47.9631C94.2029 48.4931 104.105 47.4332 107.513 64.6389C110.263 78.4922 101.592 81.9803 95.4344 83.6072M109.964 61.8288C108.098 52.9301 103.844 45.9542 90.782 44.8079C78.3045 43.5789 65.7267 43.7526 53.2887 45.3256C42.4164 46.8539 31.258 55.1856 22.0278 64.528C13.5937 73.0816 12.9717 102.514 42.5408 103.968C58.8244 104.732 74.0257 91.5198 82.6215 90.8913C90.9934 90.2997 82.7832 96.8936 90.0853 95.8213C97.3874 94.749 109.168 84.6178 110.76 76.2121C111.27 73.476 110.959 66.956 109.902 61.8905" fill="white"/>
<path fill-rule="evenodd" clip-rule="evenodd" d="M60.1276 60.9264C59.5502 62.3799 59.297 64.403 59.5783 66.6357C59.8596 68.8684 60.607 70.7687 61.5275 72.0382C62.4708 73.3392 63.4233 73.7767 64.1497 73.6875C64.8761 73.5983 65.691 72.9439 66.2828 71.4543C66.8602 70.0009 67.1134 67.9777 66.8321 65.745C66.5508 63.5124 65.8034 61.6121 64.8829 60.3425C63.9396 59.0415 62.9871 58.604 62.2607 58.6932C61.5343 58.7824 60.7194 59.4369 60.1276 60.9264ZM57.9554 59.9694C58.7006 58.0938 60.0356 56.5045 61.9553 56.2688C63.875 56.0331 65.5636 57.2512 66.7515 58.8894C67.9621 60.5591 68.8358 62.8818 69.1605 65.4591C69.4852 68.0365 69.2144 70.4997 68.455 72.4113C67.7098 74.2869 66.3748 75.8762 64.4551 76.1119C62.5354 76.3476 60.8468 75.1296 59.6589 73.4913C58.4483 71.8216 57.5746 69.499 57.2499 66.9216C56.9252 64.3442 57.196 61.881 57.9554 59.9694Z" fill="white"/>
<path fill-rule="evenodd" clip-rule="evenodd" d="M89.6938 60.9575C88.9289 62.0704 88.3813 63.7027 88.3136 65.586C88.2459 67.4693 88.675 69.1356 89.358 70.2991C90.0662 71.5056 90.8747 71.9268 91.4666 71.9474C92.0586 71.9681 92.8952 71.6044 93.6883 70.4503C94.4532 69.3374 95.0008 67.7052 95.0685 65.8219C95.1362 63.9386 94.7071 62.2722 94.0241 61.1087C93.3158 59.9022 92.5074 59.481 91.9154 59.4604C91.3235 59.4397 90.4868 59.8034 89.6938 60.9575ZM87.4346 59.7975C88.4337 58.3437 89.9998 57.1397 91.9963 57.2094C93.9929 57.2791 95.4686 58.5894 96.3608 60.1092C97.2783 61.672 97.766 63.7268 97.6874 65.9133C97.6088 68.0998 96.9748 70.1155 95.9475 71.6103C94.9484 73.0641 93.3823 74.2681 91.3857 74.1984C89.3892 74.1287 87.9135 72.8185 87.0212 71.2986C86.1038 69.7358 85.6161 67.681 85.6947 65.4945C85.7733 63.308 86.4073 61.2924 87.4346 59.7975Z" fill="white"/>
<path d="M61.912 69.3159C62.7594 71.0533 64.7049 71.5282 66.2575 70.3766C67.81 69.2251 68.3817 66.8831 67.5343 65.1458C66.6869 63.4084 64.7414 62.9335 63.1889 64.0851C61.6363 65.2366 61.0647 67.5786 61.912 69.3159Z" fill="white"/>
<path d="M91.2947 68.9213C92.4865 70.0723 94.3175 69.6986 95.3844 68.0866C96.4512 66.4747 96.3499 64.2349 95.158 63.084C93.9662 61.933 92.1352 62.3067 91.0683 63.9187C90.0015 65.5306 90.1028 67.7704 91.2947 68.9213Z" fill="white"/>
<path fill-rule="evenodd" clip-rule="evenodd" d="M84.5993 77.2535C85.0809 77.6314 85.1362 78.2948 84.7228 78.735C83.3404 80.2072 81.1085 80.8833 79.2793 80.983C77.5573 81.0768 74.8768 80.826 73.2749 79.1093C72.88 78.686 72.9144 78.0547 73.3534 77.6694C73.7924 77.2842 74.4838 77.2785 74.9302 77.6566L74.9754 77.6949C75.0303 77.7413 75.079 77.7915 75.1217 77.8446C76.0148 78.6959 77.6511 78.9667 79.1425 78.8854C80.5832 78.8069 82.1324 78.2677 82.9788 77.3663C83.3922 76.926 84.1177 76.8755 84.5993 77.2535Z" fill="white"/>
<path d="M124 62C124 96.2417 96.2417 124 62 124C27.7583 124 0 96.2417 0 62C0 27.7583 27.7583 0 62 0C96.2417 0 124 27.7583 124 62Z" fill="#6A35FF"/>
<path d="M92.9191 69.9349C87.3072 71.4499 77.8778 72.9163 64.3298 74.7828C50.7818 76.6492 41.256 70.3227 39.0402 57.585C36.8243 44.8473 42.653 36.606 57.2848 35.2971C71.9167 33.9881 80.4911 34.3759 86.115 34.8971C91.739 35.4182 101.325 34.3759 104.625 51.2949C107.286 64.9174 98.8923 68.3472 92.9312 69.947M106.997 48.5317C105.191 39.7813 101.072 32.9216 88.4272 31.7945C76.348 30.5859 64.1716 30.7567 52.1306 32.3035C41.6053 33.8063 30.803 41.9992 21.8673 51.1859C13.7024 59.5969 13.1002 88.5385 41.7257 89.9686C57.4896 90.72 72.2057 77.7278 80.5272 77.1097C88.6319 76.528 80.6838 83.012 87.7528 81.9576C94.8219 80.9032 106.226 70.9408 107.768 62.6753C108.261 59.9847 107.96 53.5734 106.937 48.5923" fill="white"/>
<path d="M92.9191 69.9349C87.3072 71.4499 77.8778 72.9163 64.3298 74.7828C50.7818 76.6492 41.256 70.3227 39.0402 57.585C36.8243 44.8473 42.653 36.606 57.2848 35.2971C71.9167 33.9881 80.4911 34.3759 86.115 34.8971C91.739 35.4182 101.325 34.3759 104.625 51.2949C107.286 64.9174 98.8923 68.3472 92.9312 69.947M106.997 48.5317C105.191 39.7813 101.072 32.9216 88.4272 31.7945C76.348 30.5859 64.1716 30.7567 52.1306 32.3035C41.6053 33.8063 30.803 41.9992 21.8673 51.1859C13.7024 59.5969 13.1002 88.5385 41.7257 89.9686C57.4896 90.72 72.2057 77.7278 80.5272 77.1097C88.6319 76.528 80.6838 83.012 87.7528 81.9576C94.8219 80.9032 106.226 70.9408 107.768 62.6753C108.261 59.9847 107.96 53.5734 106.937 48.5923" fill="white"/>
<path fill-rule="evenodd" clip-rule="evenodd" d="M58.8282 46.9632C58.3127 48.409 58.1006 50.4271 58.3812 52.6599C58.6618 54.8927 59.367 56.7981 60.2246 58.0754C61.1036 59.3844 61.9822 59.8309 62.6481 59.7491C63.3139 59.6673 64.0554 59.0219 64.5836 57.5402C65.0991 56.0943 65.3112 54.0762 65.0306 51.8435C64.75 49.6107 64.0448 47.7052 63.1871 46.4279C62.3082 45.119 61.4295 44.6725 60.7637 44.7543C60.0979 44.836 59.3564 45.4814 58.8282 46.9632ZM56.8247 45.9855C57.4899 44.1197 58.6993 42.5458 60.459 42.3297C62.2187 42.1137 63.781 43.3473 64.8877 44.9954C66.0157 46.6753 66.841 49.0039 67.1649 51.5814C67.4888 54.1589 67.265 56.6163 66.5871 58.5179C65.9219 60.3836 64.7125 61.9576 62.9528 62.1736C61.1931 62.3897 59.6308 61.1561 58.5241 59.5079C57.3961 57.8281 56.5708 55.4994 56.2469 52.922C55.923 50.3445 56.1468 47.887 56.8247 45.9855Z" fill="white"/>
<path fill-rule="evenodd" clip-rule="evenodd" d="M87.3748 46.9463C86.6704 48.0614 86.1636 49.6951 86.0961 51.5784C86.0286 53.4617 86.4171 55.1266 87.0399 56.288C87.6857 57.4923 88.4256 57.9111 88.9682 57.93C89.5108 57.949 90.2789 57.5829 91.0093 56.4266C91.7138 55.3116 92.2205 53.6779 92.2881 51.7946C92.3556 49.9113 91.9671 48.2464 91.3443 47.085C90.6985 45.8807 89.9585 45.4619 89.4159 45.4429C88.8733 45.424 88.1053 45.7901 87.3748 46.9463ZM85.3071 45.793C86.2272 44.3365 87.6665 43.128 89.4966 43.1919C91.3268 43.2559 92.6759 44.5617 93.4894 46.0788C94.326 47.6387 94.7671 49.6919 94.6887 51.8784C94.6103 54.0649 94.0232 56.0822 93.0771 57.5799C92.1569 59.0365 90.7177 60.2449 88.8875 60.181C87.0573 60.1171 85.7083 58.8113 84.8947 57.2942C84.0582 55.7342 83.617 53.681 83.6954 51.4945C83.7738 49.308 84.3609 47.2907 85.3071 45.793Z" fill="white"/>
<path d="M59.9166 56.3221C60.764 58.0594 62.7085 58.5329 64.2597 57.3797C65.811 56.2265 66.3817 53.8831 65.5343 52.1458C64.6869 50.4084 62.7424 49.9349 61.1911 51.0881C59.6399 52.2414 59.0692 54.5847 59.9166 56.3221Z" fill="white"/>
<path d="M88.942 55.5786C89.9352 56.5377 91.6036 56.0075 92.6685 54.3943C93.7334 52.7811 93.7916 50.6958 92.7983 49.7366C91.8051 48.7775 90.1367 49.3078 89.0718 50.921C88.0069 52.5342 87.9488 54.6195 88.942 55.5786Z" fill="white"/>
<path fill-rule="evenodd" clip-rule="evenodd" d="M81.6327 63.2535C82.0742 63.6314 82.1248 64.2948 81.7459 64.735C80.4787 66.2072 78.4328 66.8833 76.756 66.983C75.1775 67.0768 72.7204 66.826 71.252 65.1093C70.89 64.686 70.9215 64.0547 71.3239 63.6694C71.7263 63.2842 72.3601 63.2785 72.7693 63.6566L72.8108 63.6949C72.8611 63.7413 72.9058 63.7915 72.9449 63.8446C73.7636 64.6959 75.2635 64.9667 76.6307 64.8854C77.9512 64.8069 79.3714 64.2677 80.1472 63.3663C80.5262 62.926 81.1912 62.8755 81.6327 63.2535Z" fill="white"/>
</svg>
